<?xml version="1.0" encoding="utf-8"?>
<!-- Generator: Adobe Illustrator 25.4.1, SVG Export Plug-In . SVG Version: 6.00 Build 0)  -->
<svg version="1.1" id="Layer_1" xmlns="http://www.w3.org/2000/svg" xmlns:xlink="http://www.w3.org/1999/xlink" x="0px" y="0px"
	 viewBox="0 0 337.1 309.4" style="enable-background:new 0 0 337.1 309.4;" xml:space="preserve">
<style type="text/css">
	.st0{fill:#002744;}
	.st1{fill:#FFCE78;}
</style>
<g>
	<rect class="st0" width="337.1" height="309.4"/>
	<path class="st1" d="M168.6,284.2L298,154.7L168.6,25.2L39.1,154.7L168.6,284.2z M111.5,89.9c0.2-0.2,0.4-0.4,0.6-0.7
		c0.3-0.3,0.5-0.6,0.8-0.9c0.3-0.3,0.6-0.7,0.9-1c0.2-0.2,0.3-0.3,0.5-0.5c0.1-0.1,0.2-0.2,0.3-0.3c0.4-0.5,0.9-0.9,1.3-1.3
		c0,0,0.1-0.1,0.1-0.1c0.3-0.3,0.6-0.6,0.9-0.9c0.2-0.2,0.5-0.5,0.7-0.7c0.4-0.4,0.9-0.8,1.3-1.2c3.1-2.9,6.3-5.4,9.8-7.7
		c10.3-6.9,22-11.2,34.5-12.1c0,0,3.6-0.4,5.5-0.4c1.7,0,5.2,0.4,5.2,0.4c12.5,1,24.2,5.3,34.4,12.1c5.2,3.5,10,7.6,14.4,12.4
		c3.5,3.8,6.7,7.9,9.6,12.4c2.5,3.9,4.8,8,6.7,12.4c1.8,4,3.4,8.1,4.7,12.3c0.6,1.9,1.1,3.8,1.6,5.8c0.8,3.3-1.7,6.6-5.2,6.6h-0.1
		c-2.5,0-4.6-1.7-5.2-4.1c-0.7-2.8-1.6-5.6-2.5-8.3c-1.5-4.3-3.4-8.4-5.6-12.3c-2.4-4.4-5.2-8.6-8.4-12.4c-3.9-4.7-8.2-8.9-13-12.4
		c-10.7-7.8-23.3-12.4-36.8-12.4c-13.5,0-26.2,4.5-36.8,12.4c-4.8,3.5-9.1,7.6-13,12.4c-3.1,3.8-5.9,7.9-8.4,12.4
		c-2.1,3.9-4,8-5.6,12.3c-1.4,4-2.6,8.1-3.4,12.4c-0.4,2.1-0.8,4.2-1.1,6.4c-0.4,3.2,2.1,6,5.3,6h0c2.6,0,4.9-1.9,5.3-4.6
		c0.4-2.6,0.9-5.2,1.5-7.8c1-4.3,2.4-8.4,4.2-12.4c1.9-4.4,4.3-8.6,7-12.3c3.3-4.7,7.2-8.8,11.5-12.4c9.5-7.8,21.1-12.4,33.6-12.4
		c12.5,0,24.1,4.6,33.6,12.4c4.3,3.5,8.1,7.7,11.5,12.4c2.7,3.8,5,7.9,7,12.3c0.7,1.7,1.4,3.5,2.1,5.2c1.2,3.5-1.4,7.1-5,7.1h-0.2
		c-2.3,0-4.2-1.4-5-3.5c-1.2-3.1-2.5-6-4.1-8.8c-2.7-4.7-6-8.8-9.7-12.3c-8.2-7.7-18.7-12.4-30-12.4c-11.4,0-21.8,4.6-30,12.4
		c-3.7,3.5-7,7.7-9.7,12.3c-2.2,3.8-4,8-5.3,12.4c-0.6,1.9-1.1,3.9-1.5,6c-0.7,3.3,1.9,6.4,5.2,6.4h0c2.5,0,4.7-1.8,5.2-4.2
		c0.6-2.8,1.4-5.5,2.5-8.1c1.9-4.6,4.5-8.8,7.6-12.4c6.7-7.6,15.9-12.3,26-12.3c10.1,0,19.3,4.7,26,12.3c1.1,1.3,2.2,2.6,3.1,4.1
		c2.4,3.5-0.2,8.3-4.4,8.3h-0.7c-1.7,0-3.2-0.8-4.3-2.2c-4.9-6.3-11.9-10.2-19.7-10.2c-8.7,0-16.4,4.9-21.2,12.4
		c-1,1.6-1.9,3.2-2.6,5c-1.5,3.5,1.1,7.4,4.9,7.4H243c2.9,0,5.3,2.4,5.3,5.3c0,0.3,0,0.6,0,0.9c0,2.1-0.1,4.2-0.2,6.2l0,0
		c-0.2,4.2-1,8.3-1.7,12.4c-0.7,4.2-1.7,8.4-2.9,12.4c-1.3,4.3-2.9,8.4-4.7,12.4c-2,4.3-4.2,8.5-6.7,12.3c-2.9,4.4-6.1,8.6-9.6,12.4
		c-4.4,4.7-9.2,8.9-14.4,12.4c-10.2,6.9-21.9,11.2-34.4,12.1c0,0-3.4,0.3-5.2,0.3c-1.8,0-5.5-0.3-5.5-0.3
		c-12.5-1-24.2-5.3-34.5-12.2c-0.2-0.1-0.4-0.3-0.6-0.4c-0.3-0.2-0.6-0.4-0.8-0.6c-0.3-0.2-0.5-0.4-0.8-0.6
		c-4.4-3.1-8.4-6.8-12.2-10.8c-3.5-3.8-6.7-7.9-9.6-12.4c-2.5-3.9-4.8-8-6.7-12.3c-1.8-4-3.4-8.1-4.7-12.4c-0.6-1.9-1.1-3.8-1.6-5.8
		c-0.8-3.3,1.7-6.6,5.2-6.6h0.1c2.5,0,4.6,1.7,5.2,4.1c0.7,2.8,1.6,5.6,2.5,8.3c1.5,4.3,3.4,8.4,5.6,12.4c2.4,4.4,5.2,8.6,8.4,12.3
		c3.9,4.7,8.2,8.9,13,12.4c10.4,7.6,22.6,12.1,35.7,12.3h2.2c13.1-0.2,25.3-4.7,35.7-12.3c4.8-3.5,9.1-7.6,13-12.4
		c3.1-3.8,5.9-7.9,8.4-12.3c2.1-3.9,4-8,5.6-12.4c1.4-4,2.6-8.1,3.4-12.4c0.4-2.1,0.8-4.2,1.1-6.4c0.4-3.2-2.1-6-5.3-6l0,0
		c-2.6,0-4.9,1.9-5.3,4.6c-0.4,2.6-0.9,5.2-1.5,7.8c-1.1,4.3-2.5,8.4-4.2,12.4c-1.9,4.4-4.3,8.6-7,12.4c-3.3,4.7-7.2,8.8-11.5,12.3
		c-9.5,7.8-21.1,12.4-33.6,12.4c-12.5,0-24.1-4.6-33.6-12.4c-4.3-3.5-8.1-7.7-11.5-12.3c-2.7-3.8-5-7.9-7-12.4
		c-0.8-1.7-1.4-3.5-2.1-5.2c-1.2-3.5,1.3-7.1,5-7.1h0.2c2.3,0,4.2,1.4,5,3.5c1.2,3.1,2.5,6,4.1,8.8c2.7,4.7,6,8.8,9.7,12.4
		c8.2,7.7,18.7,12.3,30,12.3c11.4,0,21.8-4.6,30-12.3c3.7-3.5,7-7.7,9.7-12.4c2.2-3.8,4-8,5.3-12.4c0.6-1.9,1.1-3.9,1.5-6
		c0.7-3.3-1.9-6.4-5.2-6.4h0c-2.5,0-4.7,1.8-5.2,4.2c-0.6,2.8-1.4,5.5-2.5,8.1c-1.9,4.6-4.5,8.8-7.6,12.4
		c-6.7,7.6-15.9,12.4-26,12.4c-10.1,0-19.3-4.7-26-12.4c-1.1-1.3-2.2-2.6-3.1-4.1c-2.4-3.5,0.2-8.3,4.4-8.3h0.7
		c1.7,0,3.2,0.8,4.3,2.2c4.9,6.3,11.9,10.2,19.7,10.2c8.7,0,16.4-4.9,21.2-12.4c1-1.6,1.9-3.2,2.6-5c1.5-3.5-1.1-7.4-4.9-7.4H94.1
		c-2.9,0-5.3-2.4-5.3-5.3c0-0.3,0-0.6,0-0.9c0-24,7.9-45.9,20.7-62.4C110.2,91.5,110.8,90.7,111.5,89.9z"/>
</g>
</svg>
