<?xml version="1.0" encoding="UTF-8" standalone="no" ?>
<!DOCTYPE svg PUBLIC "-//W3C//DTD SVG 1.1//EN" "http://www.w3.org/Graphics/SVG/1.1/DTD/svg11.dtd">
<svg xmlns="http://www.w3.org/2000/svg" xmlns:xlink="http://www.w3.org/1999/xlink" version="1.1" width="1080" height="1080" viewBox="0 0 1080 1080" xml:space="preserve">
<desc>Created with Fabric.js 5.2.4</desc>
<defs>
</defs>
<g transform="matrix(1 0 0 1 540 540)" id="b72385c0-45fb-4f18-8750-5f6b9f6db0a8"  >
<rect style="stroke: none; stroke-width: 1; stroke-dasharray: none; stroke-linecap: butt; stroke-dashoffset: 0; stroke-linejoin: miter; stroke-miterlimit: 4; fill: rgb(255,255,255); fill-rule: nonzero; opacity: 1; visibility: hidden;" vector-effect="non-scaling-stroke"  x="-540" y="-540" rx="0" ry="0" width="1080" height="1080" />
</g>
<g transform="matrix(1 0 0 1 540 540)" id="99359bb5-8f1e-48f8-a354-27abcec6cce9"  >
</g>
<g transform="matrix(1.68 0 0 1.68 540 576.29)"  >
<g style="" vector-effect="non-scaling-stroke"   >
		<g transform="matrix(1 0 0 1 -206.85 0)"  >
<path style="stroke: none; stroke-width: 1; stroke-dasharray: none; stroke-linecap: butt; stroke-dashoffset: 0; stroke-linejoin: miter; stroke-miterlimit: 4; fill: rgb(255,206,120); fill-rule: nonzero; opacity: 1;" vector-effect="non-scaling-stroke"  transform=" translate(-333.35, -539.7)" d="M 333.3 644 L 437.6 539.7 L 333.3 435.4 L 229.1 539.7 L 333.3 644 z M 287.3 487.5 C 287.40000000000003 487.3 287.6 487.1 287.8 487 C 288 486.7 288.2 486.5 288.5 486.2 C 288.7 485.9 289 485.7 289.2 485.4 C 289.3 485.29999999999995 289.4 485.09999999999997 289.59999999999997 485 C 289.7 484.9 289.79999999999995 484.8 289.9 484.7 C 290.2 484.3 290.59999999999997 484 290.9 483.59999999999997 C 290.9 483.59999999999997 290.9 483.59999999999997 291 483.49999999999994 C 291.2 483.19999999999993 291.5 482.99999999999994 291.7 482.69999999999993 C 291.9 482.49999999999994 292.09999999999997 482.29999999999995 292.3 482.19999999999993 C 292.6 481.8999999999999 293 481.49999999999994 293.40000000000003 481.19999999999993 C 295.90000000000003 478.8999999999999 298.50000000000006 476.79999999999995 301.3 474.99999999999994 C 309.6 469.3999999999999 319 465.99999999999994 329.1 465.19999999999993 C 329.1 465.19999999999993 332 464.8999999999999 333.5 464.8999999999999 C 334.9 464.8999999999999 337.7 465.19999999999993 337.7 465.19999999999993 C 347.7 465.99999999999994 357.2 469.3999999999999 365.4 474.99999999999994 C 369.59999999999997 477.79999999999995 373.5 481.09999999999997 377 484.8999999999999 C 379.8 487.8999999999999 382.4 491.2999999999999 384.7 494.7999999999999 C 386.7 497.8999999999999 388.5 501.2999999999999 390.09999999999997 504.6999999999999 C 391.49999999999994 507.89999999999986 392.79999999999995 511.1999999999999 393.9 514.5999999999999 C 394.4 516.0999999999999 394.79999999999995 517.6999999999999 395.2 519.3 C 395.9 522 393.8 524.5999999999999 391 524.5999999999999 L 390.9 524.5999999999999 C 388.9 524.5999999999999 387.2 523.1999999999999 386.7 521.3 C 386.09999999999997 519 385.4 516.8 384.7 514.5999999999999 C 383.5 511.0999999999999 382 507.7999999999999 380.2 504.69999999999993 C 378.2 501.0999999999999 376 497.79999999999995 373.5 494.79999999999995 C 370.4 490.99999999999994 366.9 487.69999999999993 363 484.9 C 354.4 478.59999999999997 344.3 475 333.4 475 C 322.5 475 312.29999999999995 478.7 303.79999999999995 484.9 C 299.99999999999994 487.7 296.4 491.09999999999997 293.29999999999995 494.79999999999995 C 290.79999999999995 497.79999999999995 288.49999999999994 501.19999999999993 286.59999999999997 504.69999999999993 C 284.9 507.79999999999995 283.4 511.19999999999993 282.09999999999997 514.5999999999999 C 280.99999999999994 517.8 279.99999999999994 521.0999999999999 279.29999999999995 524.4999999999999 C 278.99999999999994 526.1999999999999 278.69999999999993 527.8999999999999 278.4 529.5999999999999 C 278.09999999999997 532.1999999999999 280.09999999999997 534.3999999999999 282.7 534.3999999999999 L 282.7 534.3999999999999 C 284.8 534.3999999999999 286.7 532.7999999999998 286.9 530.6999999999998 C 287.2 528.5999999999998 287.59999999999997 526.4999999999998 288.09999999999997 524.3999999999999 C 288.9 520.8999999999999 290.09999999999997 517.5999999999999 291.49999999999994 514.4999999999999 C 293.09999999999997 510.89999999999986 294.99999999999994 507.5999999999999 297.09999999999997 504.5999999999999 C 299.79999999999995 500.7999999999999 302.9 497.4999999999999 306.29999999999995 494.69999999999993 C 313.99999999999994 488.3999999999999 323.29999999999995 484.79999999999995 333.4 484.79999999999995 C 343.5 484.79999999999995 352.79999999999995 488.49999999999994 360.5 494.69999999999993 C 364 497.49999999999994 367.1 500.8999999999999 369.7 504.5999999999999 C 371.9 507.69999999999993 373.8 510.9999999999999 375.3 514.4999999999999 C 375.90000000000003 515.8999999999999 376.5 517.2999999999998 377 518.6999999999999 C 378 521.4999999999999 375.9 524.4 372.9 524.4 L 372.7 524.4 C 370.9 524.4 369.3 523.3 368.7 521.6 C 367.8 519.1 366.7 516.7 365.4 514.5 C 363.2 510.7 360.59999999999997 507.4 357.59999999999997 504.6 C 350.99999999999994 498.40000000000003 342.59999999999997 494.70000000000005 333.4 494.70000000000005 C 324.2 494.70000000000005 315.79999999999995 498.40000000000003 309.2 504.6 C 306.2 507.40000000000003 303.5 510.8 301.4 514.5 C 299.59999999999997 517.6 298.2 520.9 297.09999999999997 524.4 C 296.59999999999997 526 296.2 527.6 295.9 529.1999999999999 C 295.4 531.9 297.4 534.3 300.09999999999997 534.3 L 300.09999999999997 534.3 C 302.09999999999997 534.3 303.9 532.9 304.29999999999995 530.9 C 304.79999999999995 528.6 305.49999999999994 526.4 306.29999999999995 524.4 C 307.79999999999995 520.6999999999999 309.9 517.3 312.4 514.5 C 317.79999999999995 508.3 325.2 504.6 333.4 504.6 C 341.59999999999997 504.6 349 508.40000000000003 354.4 514.5 C 355.29999999999995 515.5 356.09999999999997 516.6 356.9 517.8 C 358.79999999999995 520.5999999999999 356.79999999999995 524.5 353.29999999999995 524.5 L 352.69999999999993 524.5 C 351.29999999999995 524.5 350.0999999999999 523.8 349.29999999999995 522.8 C 345.4 517.8 339.69999999999993 514.5999999999999 333.4 514.5999999999999 C 326.4 514.5999999999999 320.2 518.4999999999999 316.29999999999995 524.4999999999999 C 315.49999999999994 525.7999999999998 314.79999999999995 527.0999999999999 314.19999999999993 528.4999999999999 C 312.99999999999994 531.2999999999998 315.0999999999999 534.3999999999999 318.19999999999993 534.3999999999999 L 393.5999999999999 534.3999999999999 C 395.9999999999999 534.3999999999999 397.8999999999999 536.2999999999998 397.8999999999999 538.6999999999998 C 397.8999999999999 538.8999999999999 397.8999999999999 539.1999999999998 397.8999999999999 539.3999999999999 C 397.8999999999999 541.0999999999999 397.8999999999999 542.6999999999998 397.7999999999999 544.3999999999999 L 397.7999999999999 544.3999999999999 C 397.5999999999999 547.7999999999998 396.9999999999999 551.0999999999999 396.3999999999999 554.2999999999998 C 395.7999999999999 557.6999999999998 394.99999999999994 560.9999999999999 393.99999999999994 564.1999999999998 C 392.99999999999994 567.5999999999998 391.69999999999993 570.9999999999998 390.19999999999993 574.0999999999998 C 388.5999999999999 577.5999999999998 386.79999999999995 580.8999999999997 384.79999999999995 583.9999999999998 C 382.49999999999994 587.5999999999998 379.9 590.8999999999997 377.09999999999997 593.8999999999997 C 373.59999999999997 597.6999999999997 369.7 600.9999999999998 365.49999999999994 603.7999999999997 C 357.19999999999993 609.2999999999997 347.79999999999995 612.7999999999997 337.79999999999995 613.5999999999997 C 337.79999999999995 613.5999999999997 334.99999999999994 613.8999999999996 333.59999999999997 613.8999999999996 C 332.09999999999997 613.8999999999996 329.2 613.5999999999997 329.2 613.5999999999997 C 319.09999999999997 612.7999999999997 309.7 609.3999999999996 301.4 603.7999999999997 C 301.2 603.6999999999997 301.09999999999997 603.5999999999997 300.9 603.4999999999998 C 300.7 603.2999999999997 300.5 603.1999999999998 300.2 602.9999999999998 C 300 602.7999999999997 299.8 602.6999999999998 299.5 602.4999999999998 C 296 599.9999999999998 292.7 596.9999999999998 289.7 593.7999999999997 C 286.9 590.7999999999997 284.3 587.3999999999997 282 583.8999999999997 C 280 580.7999999999997 278.2 577.3999999999997 276.6 573.9999999999998 C 275.20000000000005 570.7999999999997 273.90000000000003 567.4999999999998 272.8 564.0999999999998 C 272.3 562.5999999999998 271.90000000000003 560.9999999999998 271.5 559.3999999999997 C 270.8 556.6999999999997 272.9 554.0999999999998 275.7 554.0999999999998 L 275.8 554.0999999999998 C 277.8 554.0999999999998 279.5 555.4999999999998 280 557.3999999999997 C 280.6 559.6999999999997 281.3 561.8999999999997 282 564.0999999999998 C 283.2 567.5999999999998 284.8 570.8999999999997 286.5 573.9999999999998 C 288.5 577.5999999999998 290.7 580.8999999999997 293.2 583.8999999999997 C 296.3 587.6999999999997 299.8 590.9999999999998 303.7 593.7999999999997 C 312 599.8999999999997 321.9 603.4999999999998 332.4 603.6999999999997 L 334.2 603.6999999999997 C 344.8 603.4999999999997 354.59999999999997 599.8999999999997 362.9 593.7999999999997 C 366.7 590.9999999999998 370.29999999999995 587.5999999999997 373.4 583.8999999999997 C 375.9 580.8999999999997 378.2 577.4999999999998 380.09999999999997 573.9999999999998 C 381.79999999999995 570.8999999999997 383.29999999999995 567.4999999999998 384.59999999999997 564.0999999999998 C 385.7 560.8999999999997 386.7 557.5999999999998 387.4 554.1999999999998 C 387.7 552.4999999999998 388 550.7999999999998 388.29999999999995 549.0999999999998 C 388.59999999999997 546.4999999999998 386.59999999999997 544.2999999999998 383.99999999999994 544.2999999999998 L 383.99999999999994 544.2999999999998 C 381.8999999999999 544.2999999999998 379.99999999999994 545.8999999999999 379.79999999999995 547.9999999999999 C 379.49999999999994 550.0999999999999 379.09999999999997 552.1999999999999 378.59999999999997 554.2999999999998 C 377.79999999999995 557.7999999999998 376.59999999999997 561.0999999999998 375.2 564.1999999999998 C 373.59999999999997 567.7999999999998 371.7 571.0999999999998 369.59999999999997 574.0999999999998 C 366.9 577.8999999999997 363.79999999999995 581.1999999999998 360.4 583.9999999999998 C 352.7 590.2999999999997 343.4 593.8999999999997 333.29999999999995 593.8999999999997 C 323.19999999999993 593.8999999999997 313.9 590.1999999999997 306.19999999999993 583.9999999999998 C 302.79999999999995 581.1999999999998 299.5999999999999 577.7999999999997 296.99999999999994 574.0999999999998 C 294.79999999999995 570.9999999999998 292.8999999999999 567.6999999999998 291.3999999999999 564.1999999999998 C 290.7999999999999 562.7999999999998 290.19999999999993 561.3999999999999 289.69999999999993 559.9999999999998 C 288.69999999999993 557.1999999999998 290.79999999999995 554.2999999999997 293.69999999999993 554.2999999999997 L 293.8999999999999 554.2999999999997 C 295.69999999999993 554.2999999999997 297.2999999999999 555.3999999999997 297.8999999999999 557.1999999999997 C 298.7999999999999 559.6999999999997 299.8999999999999 562.0999999999997 301.19999999999993 564.2999999999997 C 303.3999999999999 568.0999999999997 305.99999999999994 571.3999999999997 308.99999999999994 574.1999999999997 C 315.59999999999997 580.3999999999997 323.99999999999994 584.0999999999997 333.19999999999993 584.0999999999997 C 342.3999999999999 584.0999999999997 350.79999999999995 580.3999999999996 357.3999999999999 574.1999999999997 C 360.3999999999999 571.3999999999997 363.0999999999999 567.9999999999997 365.19999999999993 564.2999999999997 C 366.99999999999994 561.1999999999997 368.3999999999999 557.8999999999997 369.49999999999994 554.3999999999997 C 369.99999999999994 552.7999999999997 370.3999999999999 551.1999999999997 370.69999999999993 549.5999999999998 C 371.19999999999993 546.8999999999997 369.19999999999993 544.4999999999998 366.49999999999994 544.4999999999998 L 366.49999999999994 544.4999999999998 C 364.49999999999994 544.4999999999998 362.69999999999993 545.8999999999997 362.29999999999995 547.8999999999997 C 361.79999999999995 550.1999999999997 361.09999999999997 552.3999999999997 360.29999999999995 554.3999999999997 C 358.79999999999995 558.0999999999998 356.69999999999993 561.4999999999998 354.19999999999993 564.2999999999997 C 348.79999999999995 570.4999999999998 341.3999999999999 574.1999999999997 333.19999999999993 574.1999999999997 C 324.99999999999994 574.1999999999997 317.5999999999999 570.3999999999997 312.19999999999993 564.2999999999997 C 311.29999999999995 563.2999999999997 310.49999999999994 562.1999999999997 309.69999999999993 560.9999999999998 C 307.79999999999995 558.1999999999998 309.79999999999995 554.2999999999997 313.29999999999995 554.2999999999997 L 313.9 554.2999999999997 C 315.29999999999995 554.2999999999997 316.5 554.9999999999998 317.29999999999995 555.9999999999998 C 321.19999999999993 560.9999999999998 326.9 564.1999999999998 333.19999999999993 564.1999999999998 C 340.19999999999993 564.1999999999998 346.3999999999999 560.2999999999998 350.29999999999995 554.2999999999998 C 351.09999999999997 552.9999999999999 351.79999999999995 551.6999999999998 352.4 550.2999999999998 C 353.59999999999997 547.4999999999999 351.5 544.3999999999999 348.4 544.3999999999999 L 273.29999999999995 544.3999999999999 C 270.9 544.3999999999999 268.99999999999994 542.4999999999999 268.99999999999994 540.0999999999999 C 268.99999999999994 539.8999999999999 268.99999999999994 539.5999999999999 268.99999999999994 539.3999999999999 C 268.99999999999994 520.0999999999999 275.29999999999995 502.39999999999986 285.69999999999993 489.1999999999999 C 286.3 488.8 286.8 488.2 287.3 487.5 z" stroke-linecap="round" />
</g>
		<g transform="matrix(1 0 0 1 -53.55 -17.9)"  >
<path style="stroke: none; stroke-width: 1; stroke-dasharray: none; stroke-linecap: butt; stroke-dashoffset: 0; stroke-linejoin: miter; stroke-miterlimit: 4; fill: rgb(255,206,120); fill-rule: nonzero; opacity: 1;" vector-effect="non-scaling-stroke"  transform=" translate(-486.65, -521.8)" d="M 501.6 521.4 C 499.90000000000003 520.3 498 519.5 495.90000000000003 518.8 C 493.8 518.1999999999999 491.70000000000005 517.5999999999999 489.70000000000005 517.0999999999999 C 487.6 516.5999999999999 485.70000000000005 516.0999999999999 484.00000000000006 515.5999999999999 C 482.30000000000007 515.0999999999999 480.90000000000003 514.4999999999999 479.80000000000007 513.5999999999999 C 478.70000000000005 512.8 478.20000000000005 511.69999999999993 478.20000000000005 510.3999999999999 C 478.20000000000005 509.2999999999999 478.50000000000006 508.2999999999999 479.1 507.3999999999999 C 479.70000000000005 506.49999999999994 480.8 505.7999999999999 482.20000000000005 505.2999999999999 C 483.6 504.7999999999999 485.50000000000006 504.4999999999999 487.70000000000005 504.4999999999999 C 490.00000000000006 504.4999999999999 492.20000000000005 504.7999999999999 494.6 505.4999999999999 C 496.90000000000003 506.1999999999999 499.3 507.1999999999999 501.6 508.5999999999999 L 505.20000000000005 499.4999999999999 C 502.90000000000003 497.9999999999999 500.1 496.7999999999999 497.1 496.0999999999999 C 494 495.2999999999999 490.90000000000003 494.9999999999999 487.8 494.9999999999999 C 483.1 494.9999999999999 479.1 495.6999999999999 476 497.1999999999999 C 472.9 498.59999999999985 470.5 500.59999999999985 469 502.9999999999999 C 467.4 505.39999999999986 466.7 508.0999999999999 466.7 511.0999999999999 C 466.7 513.8999999999999 467.2 516.0999999999999 468.3 517.8999999999999 C 469.40000000000003 519.6999999999998 470.8 521.0999999999999 472.5 522.1999999999998 C 474.2 523.2999999999998 476.1 524.1999999999998 478.2 524.8999999999999 C 480.3 525.5999999999999 482.4 526.1999999999998 484.4 526.5999999999999 C 486.5 527.0999999999999 488.4 527.5999999999999 490.09999999999997 528.0999999999999 C 491.79999999999995 528.5999999999999 493.2 529.3 494.29999999999995 530.0999999999999 C 495.4 530.8999999999999 495.9 531.9999999999999 495.9 533.3999999999999 C 495.9 534.4999999999999 495.59999999999997 535.3999999999999 494.9 536.2999999999998 C 494.2 537.0999999999998 493.2 537.7999999999998 491.79999999999995 538.2999999999998 C 490.4 538.7999999999998 488.49999999999994 538.9999999999999 486.19999999999993 538.9999999999999 C 483.19999999999993 538.9999999999999 480.19999999999993 538.4999999999999 477.29999999999995 537.4999999999999 C 474.4 536.4999999999999 471.79999999999995 535.1999999999999 469.69999999999993 533.5999999999999 L 465.69999999999993 542.5999999999999 C 467.99999999999994 544.3999999999999 470.8999999999999 545.8 474.5999999999999 546.8999999999999 C 478.2999999999999 547.9999999999999 482.0999999999999 548.5999999999999 486.19999999999993 548.5999999999999 C 490.99999999999994 548.5999999999999 494.99999999999994 547.8999999999999 498.0999999999999 546.3999999999999 C 501.19999999999993 544.8999999999999 503.5999999999999 542.9999999999999 505.19999999999993 540.5999999999999 C 506.79999999999995 538.1999999999999 507.5999999999999 535.4999999999999 507.5999999999999 532.5999999999999 C 507.5999999999999 529.8999999999999 507.0999999999999 527.6999999999999 505.9999999999999 525.8999999999999 C 504.7 523.9 503.3 522.5 501.6 521.4 z" stroke-linecap="round" />
</g>
		<g transform="matrix(1 0 0 1 -3.2 -18)"  >
<path style="stroke: none; stroke-width: 1; stroke-dasharray: none; stroke-linecap: butt; stroke-dashoffset: 0; stroke-linejoin: miter; stroke-miterlimit: 4; fill: rgb(255,206,120); fill-rule: nonzero; opacity: 1;" vector-effect="non-scaling-stroke"  transform=" translate(-537, -521.7)" d="M 531.2 495.9 L 508.80000000000007 547.5 L 520.7 547.5 L 525.2 536.5 L 548.5 536.5 L 553 547.5 L 565.2 547.5 L 542.7 495.9 L 531.2 495.9 z M 528.9 527.3 L 536.9 507.59999999999997 L 544.9 527.3 L 528.9 527.3 z" stroke-linecap="round" />
</g>
		<g transform="matrix(1 0 0 1 58.55 -18.05)"  >
<polygon style="stroke: none; stroke-width: 1; stroke-dasharray: none; stroke-linecap: butt; stroke-dashoffset: 0; stroke-linejoin: miter; stroke-miterlimit: 4; fill: rgb(255,206,120); fill-rule: nonzero; opacity: 1;" vector-effect="non-scaling-stroke"  points="18.65,-25.75 0.15,6.25 -18.75,-25.75 -28.35,-25.75 -28.35,25.75 -17.45,25.75 -17.45,-4.45 -2.65,20.35 2.55,20.35 17.35,-5.15 17.45,25.75 28.35,25.75 28.15,-25.75 " />
</g>
		<g transform="matrix(1 0 0 1 120.4 -18.1)"  >
<path style="stroke: none; stroke-width: 1; stroke-dasharray: none; stroke-linecap: butt; stroke-dashoffset: 0; stroke-linejoin: miter; stroke-miterlimit: 4; fill: rgb(255,206,120); fill-rule: nonzero; opacity: 1;" vector-effect="non-scaling-stroke"  transform=" translate(-660.6, -521.6)" d="M 672.1 536.4 L 676.6 547.4 L 688.8000000000001 547.4 L 666.3000000000001 495.79999999999995 L 654.8000000000001 495.79999999999995 L 632.4000000000001 547.4 L 644.3000000000001 547.4 L 648.8000000000001 536.4 L 672.1 536.4 z M 660.5 507.6 L 668.5 527.3000000000001 L 652.5 527.3000000000001 L 660.5 507.6 z" stroke-linecap="round" />
</g>
		<g transform="matrix(1 0 0 1 174.35 -18.05)"  >
<path style="stroke: none; stroke-width: 1; stroke-dasharray: none; stroke-linecap: butt; stroke-dashoffset: 0; stroke-linejoin: miter; stroke-miterlimit: 4; fill: rgb(255,206,120); fill-rule: nonzero; opacity: 1;" vector-effect="non-scaling-stroke"  transform=" translate(-714.55, -521.65)" d="M 697.9 540.8 C 700.4 543.1999999999999 703.3 545.0999999999999 706.6 546.4 C 709.9 547.6999999999999 713.6 548.4 717.6 548.4 C 721.2 548.4 724.8000000000001 547.8 728.4 546.6999999999999 C 732 545.5999999999999 735.1999999999999 543.9999999999999 737.9 541.8 L 737.9 520.9 L 727.3 520.9 L 727.3 536 C 726.5 536.4 725.8 536.8 725 537 C 722.8 537.8 720.6 538.1 718.3 538.1 C 715.9 538.1 713.6999999999999 537.7 711.6999999999999 536.9 C 709.6999999999999 536.1 707.9999999999999 535 706.4999999999999 533.5 C 704.9999999999999 532 703.8999999999999 530.2 703.0999999999999 528.2 C 702.3 526.2 701.8999999999999 524 701.8999999999999 521.6 C 701.8999999999999 519.1 702.2999999999998 516.9 703.0999999999999 514.9 C 703.8999999999999 512.9 704.9999999999999 511.09999999999997 706.4999999999999 509.7 C 707.9999999999999 508.2 709.6999999999999 507.09999999999997 711.6999999999999 506.3 C 713.6999999999999 505.5 715.9 505.1 718.4 505.1 C 720.9 505.1 723.3 505.6 725.4 506.5 C 727.6 507.5 729.5 508.9 731.4 510.9 L 738.9 503.79999999999995 C 736.5 500.9 733.5 498.69999999999993 729.9 497.19999999999993 C 726.3 495.69999999999993 722.3 494.8999999999999 717.9 494.8999999999999 C 713.9 494.8999999999999 710.1999999999999 495.5999999999999 706.8 496.8999999999999 C 703.4 498.19999999999993 700.5 500.0999999999999 698 502.49999999999994 C 695.5 504.8999999999999 693.6 507.69999999999993 692.2 510.99999999999994 C 690.8000000000001 514.1999999999999 690.2 517.8 690.2 521.6999999999999 C 690.2 525.5999999999999 690.9000000000001 529.0999999999999 692.2 532.4 C 693.6 535.6 695.5 538.4 697.9 540.8 z" stroke-linecap="round" />
</g>
		<g transform="matrix(1 0 0 1 230.75 -17.9)"  >
<path style="stroke: none; stroke-width: 1; stroke-dasharray: none; stroke-linecap: butt; stroke-dashoffset: 0; stroke-linejoin: miter; stroke-miterlimit: 4; fill: rgb(255,206,120); fill-rule: nonzero; opacity: 1;" vector-effect="non-scaling-stroke"  transform=" translate(-770.95, -521.8)" d="M 760.3 533.1 L 770.4 533.1 C 770.6 533.1 770.8 533.1 770.9 533.1 L 780.6 547.5 L 793.2 547.5 L 782 530.9 C 782 530.9 782.1 530.9 782.1 530.9 C 785.4 529.4 787.9 527.3 789.6 524.5 C 791.4 521.7 792.3000000000001 518.4 792.3000000000001 514.6 C 792.3000000000001 510.70000000000005 791.4000000000001 507.40000000000003 789.6 504.6 C 787.8000000000001 501.8 785.3000000000001 499.70000000000005 782.1 498.20000000000005 C 778.8000000000001 496.70000000000005 775 496.00000000000006 770.5 496.00000000000006 L 748.7 496.00000000000006 L 748.7 547.6 L 760.3000000000001 547.6 L 760.3000000000001 533.1 z M 777.9 508 C 779.6999999999999 509.6 780.6 511.8 780.6 514.6 C 780.6 517.4 779.7 519.6 777.9 521.2 C 776.1 522.8000000000001 773.4 523.6 769.9 523.6 L 760.4 523.6 L 760.4 505.6 L 769.9 505.6 C 773.4 505.6 776.1 506.4 777.9 508 z" stroke-linecap="round" />
</g>
		<g transform="matrix(1 0 0 1 282.9 -18.1)"  >
<path style="stroke: none; stroke-width: 1; stroke-dasharray: none; stroke-linecap: butt; stroke-dashoffset: 0; stroke-linejoin: miter; stroke-miterlimit: 4; fill: rgb(255,206,120); fill-rule: nonzero; opacity: 1;" vector-effect="non-scaling-stroke"  transform=" translate(-823.1, -521.6)" d="M 811.3 536.4 L 834.5999999999999 536.4 L 839.0999999999999 547.4 L 851.3 547.4 L 828.8 495.79999999999995 L 817.3 495.79999999999995 L 794.9 547.4 L 806.8 547.4 L 811.3 536.4 z M 823 507.6 L 831 527.3000000000001 L 815 527.3000000000001 L 823 507.6 z" stroke-linecap="round" />
</g>
		<g transform="matrix(1 0 0 1 124.45 35)"  >
<path style="stroke: none; stroke-width: 1; stroke-dasharray: none; stroke-linecap: butt; stroke-dashoffset: 0; stroke-linejoin: miter; stroke-miterlimit: 4; fill: rgb(255,206,120); fill-rule: nonzero; opacity: 1;" vector-effect="non-scaling-stroke"  transform=" translate(-664.65, -574.7)" d="M 670.4 574.6 C 669.8 574.2 669 573.9 668.3 573.7 C 667.5 573.5 666.6999999999999 573.3000000000001 666 573.1 C 665.2 572.9 664.5 572.7 663.9 572.6 C 663.3 572.4 662.6999999999999 572.2 662.3 571.9 C 661.9 571.6 661.6999999999999 571.1999999999999 661.6999999999999 570.6999999999999 C 661.6999999999999 570.3 661.8 569.9 661.9999999999999 569.5999999999999 C 662.1999999999999 569.3 662.5999999999999 568.9999999999999 663.1999999999999 568.8 C 663.6999999999999 568.5999999999999 664.4 568.5 665.3 568.5 C 666.0999999999999 568.5 667 568.6 667.9 568.9 C 668.8 569.1 669.6999999999999 569.5 670.5 570 L 671.8 566.7 C 670.9 566.1 669.9 565.7 668.8 565.4000000000001 C 667.6999999999999 565.1000000000001 666.5 565.0000000000001 665.3 565.0000000000001 C 663.5 565.0000000000001 662.0999999999999 565.3000000000001 660.9 565.8000000000001 C 659.6999999999999 566.3000000000001 658.9 567.0000000000001 658.3 567.9000000000001 C 657.6999999999999 568.8000000000001 657.4 569.8000000000001 657.4 570.8000000000001 C 657.4 571.8000000000001 657.6 572.6 658 573.3000000000001 C 658.4 573.9000000000001 658.9 574.5000000000001 659.6 574.9000000000001 C 660.2 575.3000000000001 661 575.6000000000001 661.7 575.9000000000001 C 662.5 576.2 663.3000000000001 576.4000000000001 664 576.5000000000001 C 664.8 576.7000000000002 665.5 576.8000000000001 666.1 577.0000000000001 C 666.7 577.2000000000002 667.3000000000001 577.4000000000001 667.7 577.7000000000002 C 668.1 578.0000000000001 668.3000000000001 578.4000000000002 668.3000000000001 578.9000000000002 C 668.3000000000001 579.3000000000002 668.2 579.6000000000003 667.9000000000001 579.9000000000002 C 667.6000000000001 580.2000000000002 667.3000000000001 580.4000000000002 666.7 580.6000000000003 C 666.2 580.8000000000003 665.5 580.9000000000002 664.6 580.9000000000002 C 663.5 580.9000000000002 662.4 580.7000000000002 661.3000000000001 580.3000000000002 C 660.2 579.9000000000002 659.2 579.5000000000002 658.4000000000001 578.9000000000002 L 656.9000000000001 582.2000000000002 C 657.7 582.8000000000002 658.8000000000001 583.4000000000002 660.2 583.8000000000002 C 661.6 584.2000000000002 663 584.4000000000002 664.5 584.4000000000002 C 666.3 584.4000000000002 667.8 584.1000000000003 668.9 583.6000000000003 C 670.1 583.1000000000003 671 582.4000000000002 671.5 581.5000000000002 C 672.1 580.6000000000003 672.4 579.7000000000003 672.4 578.6000000000003 C 672.4 577.6000000000003 672.1999999999999 576.8000000000003 671.8 576.2000000000003 C 671.5 575.5 671 575 670.4 574.6 z" stroke-linecap="round" />
</g>
		<g transform="matrix(1 0 0 1 143.6 35.15)"  >
<path style="stroke: none; stroke-width: 1; stroke-dasharray: none; stroke-linecap: butt; stroke-dashoffset: 0; stroke-linejoin: miter; stroke-miterlimit: 4; fill: rgb(255,206,120); fill-rule: nonzero; opacity: 1;" vector-effect="non-scaling-stroke"  transform=" translate(-683.8, -574.85)" d="M 688 575.7 C 688 577.5 687.6 578.8000000000001 686.9 579.6 C 686.1999999999999 580.4 685.1 580.8000000000001 683.8 580.8000000000001 C 682.5 580.8000000000001 681.4 580.4000000000001 680.6999999999999 579.6 C 679.9999999999999 578.8000000000001 679.5999999999999 577.5 679.5999999999999 575.7 L 679.5999999999999 565.3000000000001 L 675.3 565.3000000000001 L 675.3 575.8000000000001 C 675.3 578.6 676.0999999999999 580.7 677.5999999999999 582.2 C 679.0999999999999 583.7 681.1999999999999 584.4000000000001 683.8 584.4000000000001 C 686.4 584.4000000000001 688.5 583.7 690 582.2 C 691.5 580.7 692.3 578.6 692.3 575.8000000000001 L 692.3 565.3000000000001 L 688 565.3000000000001 L 688 575.7 z" stroke-linecap="round" />
</g>
		<g transform="matrix(1 0 0 1 164.6 35)"  >
<path style="stroke: none; stroke-width: 1; stroke-dasharray: none; stroke-linecap: butt; stroke-dashoffset: 0; stroke-linejoin: miter; stroke-miterlimit: 4; fill: rgb(255,206,120); fill-rule: nonzero; opacity: 1;" vector-effect="non-scaling-stroke"  transform=" translate(-704.8, -574.7)" d="M 709.1 566.1 C 707.9 565.6 706.4 565.3000000000001 704.8000000000001 565.3000000000001 L 696.7 565.3000000000001 L 696.7 584.1 L 701 584.1 L 701 578.9 L 704.8 578.9 C 706.5 578.9 707.9 578.6 709.0999999999999 578.1 C 710.3 577.6 711.3 576.8000000000001 711.8999999999999 575.7 C 712.5999999999999 574.7 712.8999999999999 573.5 712.8999999999999 572.1 C 712.8999999999999 570.7 712.5999999999999 569.5 711.8999999999999 568.4 C 711.2 567.4 710.3 566.7 709.1 566.1 z M 707.5 574.5 C 706.8 575.1 705.8 575.4 704.5 575.4 L 701 575.4 L 701 568.9 L 704.5 568.9 C 705.8 568.9 706.8 569.1999999999999 707.5 569.8 C 708.2 570.4 708.5 571.1999999999999 708.5 572.1999999999999 C 708.5 573.2 708.2 574 707.5 574.5 z" stroke-linecap="round" />
</g>
		<g transform="matrix(1 0 0 1 183.05 35)"  >
<polygon style="stroke: none; stroke-width: 1; stroke-dasharray: none; stroke-linecap: butt; stroke-dashoffset: 0; stroke-linejoin: miter; stroke-miterlimit: 4; fill: rgb(255,206,120); fill-rule: nonzero; opacity: 1;" vector-effect="non-scaling-stroke"  points="-2.95,1.6 5.75,1.6 5.75,-1.8 -2.95,-1.8 -2.95,-5.9 6.95,-5.9 6.95,-9.4 -7.25,-9.4 -7.25,9.4 7.25,9.4 7.25,5.9 -2.95,5.9 " />
</g>
		<g transform="matrix(1 0 0 1 202.1 35.05)"  >
<path style="stroke: none; stroke-width: 1; stroke-dasharray: none; stroke-linecap: butt; stroke-dashoffset: 0; stroke-linejoin: miter; stroke-miterlimit: 4; fill: rgb(255,206,120); fill-rule: nonzero; opacity: 1;" vector-effect="non-scaling-stroke"  transform=" translate(-742.3, -574.75)" d="M 746.4 578.1 C 747.6 577.6 748.6 576.8000000000001 749.1999999999999 575.8000000000001 C 749.9 574.8000000000001 750.1999999999999 573.6 750.1999999999999 572.2 C 750.1999999999999 570.8000000000001 749.9 569.6 749.1999999999999 568.5 C 748.4999999999999 567.5 747.5999999999999 566.7 746.4 566.1 C 745.1999999999999 565.6 743.6999999999999 565.3000000000001 742.1 565.3000000000001 L 734 565.3000000000001 L 734 584.1 L 738.3 584.1 L 738.3 578.9 L 742.0999999999999 578.9 C 742.1999999999999 578.9 742.1999999999999 578.9 742.3 578.9 L 745.9 584.1999999999999 L 750.6 584.1999999999999 L 746.4 578.1 C 746.4 578.1 746.4 578.1 746.4 578.1 z M 744.9 569.7 C 745.6 570.3000000000001 745.9 571.1 745.9 572.1 C 745.9 573.1 745.6 573.9 744.9 574.5 C 744.1999999999999 575.1 743.1999999999999 575.4 741.9 575.4 L 738.4 575.4 L 738.4 568.8 L 741.9 568.8 C 743.2 568.8 744.2 569.1 744.9 569.7 z" stroke-linecap="round" />
</g>
		<g transform="matrix(1 0 0 1 227.25 35)"  >
<path style="stroke: none; stroke-width: 1; stroke-dasharray: none; stroke-linecap: butt; stroke-dashoffset: 0; stroke-linejoin: miter; stroke-miterlimit: 4; fill: rgb(255,206,120); fill-rule: nonzero; opacity: 1;" vector-effect="non-scaling-stroke"  transform=" translate(-767.45, -574.7)" d="M 773.2 574.6 C 772.6 574.2 771.8000000000001 573.9 771.1 573.7 C 770.3000000000001 573.5 769.5 573.3000000000001 768.8000000000001 573.1 C 768.0000000000001 572.9 767.3000000000001 572.7 766.7 572.6 C 766.1 572.4 765.5 572.2 765.1 571.9 C 764.7 571.6 764.5 571.1999999999999 764.5 570.6999999999999 C 764.5 570.3 764.6 569.9 764.8 569.5999999999999 C 765 569.3 765.4 568.9999999999999 766 568.8 C 766.5 568.5999999999999 767.2 568.5 768.1 568.5 C 768.9 568.5 769.8000000000001 568.6 770.7 568.9 C 771.6 569.1 772.5 569.5 773.3000000000001 570 L 774.6 566.7 C 773.7 566.1 772.7 565.7 771.6 565.4000000000001 C 770.5 565.1000000000001 769.3000000000001 565.0000000000001 768.1 565.0000000000001 C 766.3000000000001 565.0000000000001 764.9 565.3000000000001 763.7 565.8000000000001 C 762.5 566.3000000000001 761.7 567.0000000000001 761.1 567.9000000000001 C 760.5 568.8000000000001 760.2 569.8000000000001 760.2 570.8000000000001 C 760.2 571.8000000000001 760.4000000000001 572.6 760.8000000000001 573.3000000000001 C 761.2 573.9000000000001 761.7 574.5000000000001 762.4000000000001 574.9000000000001 C 763.0000000000001 575.3000000000001 763.8000000000001 575.6000000000001 764.5000000000001 575.9000000000001 C 765.3000000000001 576.2 766.1000000000001 576.4000000000001 766.8000000000001 576.5000000000001 C 767.6 576.7000000000002 768.3000000000001 576.8000000000001 768.9000000000001 577.0000000000001 C 769.5000000000001 577.2000000000002 770.1000000000001 577.4000000000001 770.5000000000001 577.7000000000002 C 770.9000000000001 578.0000000000001 771.1000000000001 578.4000000000002 771.1000000000001 578.9000000000002 C 771.1000000000001 579.3000000000002 771.0000000000001 579.6000000000003 770.7000000000002 579.9000000000002 C 770.4000000000002 580.2000000000002 770.1000000000001 580.4000000000002 769.5000000000001 580.6000000000003 C 769.0000000000001 580.8000000000003 768.3000000000001 580.9000000000002 767.4000000000001 580.9000000000002 C 766.3000000000001 580.9000000000002 765.2 580.7000000000002 764.1000000000001 580.3000000000002 C 763.0000000000001 579.9000000000002 762.0000000000001 579.5000000000002 761.2000000000002 578.9000000000002 L 759.7000000000002 582.2000000000002 C 760.5000000000001 582.8000000000002 761.6000000000001 583.4000000000002 763.0000000000001 583.8000000000002 C 764.4000000000001 584.2000000000002 765.8000000000001 584.4000000000002 767.3000000000001 584.4000000000002 C 769.1 584.4000000000002 770.6 584.1000000000003 771.7 583.6000000000003 C 772.9000000000001 583.1000000000003 773.8000000000001 582.4000000000002 774.3000000000001 581.5000000000002 C 774.9000000000001 580.6000000000003 775.2 579.7000000000003 775.2 578.6000000000003 C 775.2 577.6000000000003 775 576.8000000000003 774.6 576.2000000000003 C 774.4 575.5 773.9 575 773.2 574.6 z" stroke-linecap="round" />
</g>
		<g transform="matrix(1 0 0 1 243.95 35)"  >
<polygon style="stroke: none; stroke-width: 1; stroke-dasharray: none; stroke-linecap: butt; stroke-dashoffset: 0; stroke-linejoin: miter; stroke-miterlimit: 4; fill: rgb(255,206,120); fill-rule: nonzero; opacity: 1;" vector-effect="non-scaling-stroke"  points="-8.15,-5.9 -2.15,-5.9 -2.15,9.4 2.15,9.4 2.15,-5.9 8.15,-5.9 8.15,-9.4 -8.15,-9.4 " />
</g>
		<g transform="matrix(1 0 0 1 263.2 35)"  >
<path style="stroke: none; stroke-width: 1; stroke-dasharray: none; stroke-linecap: butt; stroke-dashoffset: 0; stroke-linejoin: miter; stroke-miterlimit: 4; fill: rgb(255,206,120); fill-rule: nonzero; opacity: 1;" vector-effect="non-scaling-stroke"  transform=" translate(-803.4, -574.7)" d="M 810.8 567.7 C 809.9 566.8000000000001 808.8 566.1 807.5999999999999 565.7 C 806.3999999999999 565.2 804.9999999999999 565 803.4999999999999 565 C 801.9999999999999 565 800.6999999999999 565.2 799.3999999999999 565.7 C 798.0999999999999 566.2 797.0999999999999 566.9000000000001 796.0999999999999 567.7 C 795.1999999999999 568.6 794.4999999999999 569.6 793.8999999999999 570.8000000000001 C 793.3999999999999 572.0000000000001 793.0999999999999 573.3000000000001 793.0999999999999 574.7 C 793.0999999999999 576.1 793.3999999999999 577.4000000000001 793.8999999999999 578.6 C 794.3999999999999 579.8000000000001 795.0999999999999 580.8000000000001 795.9999999999999 581.7 C 796.8999999999999 582.6 797.9999999999999 583.3000000000001 799.2999999999998 583.7 C 800.5999999999998 584.1 801.8999999999999 584.4000000000001 803.3999999999999 584.4000000000001 C 804.8999999999999 584.4000000000001 806.1999999999998 584.2 807.4999999999999 583.7 C 808.6999999999999 583.2 809.7999999999998 582.5 810.6999999999999 581.7 C 811.5999999999999 580.8000000000001 812.3 579.8000000000001 812.9 578.6 C 813.4 577.4 813.6999999999999 576.1 813.6999999999999 574.7 C 813.6999999999999 573.3000000000001 813.4 572 812.9 570.8000000000001 C 812.5 569.6 811.7 568.6 810.8 567.7 z M 808.9 577.2 C 808.6 577.9000000000001 808.1999999999999 578.6 807.6999999999999 579.1 C 807.1999999999999 579.6 806.4999999999999 580.1 805.8 580.3000000000001 C 805.0999999999999 580.6 804.3 580.7 803.5 580.7 C 802.7 580.7 801.9 580.6 801.2 580.3000000000001 C 800.5 580.0000000000001 799.9000000000001 579.6 799.3000000000001 579.1 C 798.8000000000001 578.6 798.4000000000001 577.9 798.1 577.2 C 797.8000000000001 576.5 797.7 575.6 797.7 574.8000000000001 C 797.7 573.9000000000001 797.8000000000001 573.1 798.1 572.4000000000001 C 798.4 571.7 798.8000000000001 571.0000000000001 799.3000000000001 570.5000000000001 C 799.8000000000001 570.0000000000001 800.5000000000001 569.5000000000001 801.2 569.3000000000001 C 801.9000000000001 569.0000000000001 802.7 568.9000000000001 803.5 568.9000000000001 C 804.3 568.9000000000001 805.1 569.0000000000001 805.8 569.3000000000001 C 806.5 569.6 807.0999999999999 570.0000000000001 807.6999999999999 570.5000000000001 C 808.1999999999999 571.0000000000001 808.5999999999999 571.7000000000002 808.9 572.4000000000001 C 809.1999999999999 573.1000000000001 809.3 574.0000000000001 809.3 574.8000000000001 C 809.3 575.6 809.2 576.4 808.9 577.2 z" stroke-linecap="round" />
</g>
		<g transform="matrix(1 0 0 1 285.1 35.05)"  >
<path style="stroke: none; stroke-width: 1; stroke-dasharray: none; stroke-linecap: butt; stroke-dashoffset: 0; stroke-linejoin: miter; stroke-miterlimit: 4; fill: rgb(255,206,120); fill-rule: nonzero; opacity: 1;" vector-effect="non-scaling-stroke"  transform=" translate(-825.3, -574.75)" d="M 829.5 578.1 C 830.7 577.6 831.7 576.8000000000001 832.3 575.8000000000001 C 833 574.8000000000001 833.3 573.6 833.3 572.2 C 833.3 570.8000000000001 833 569.6 832.3 568.5 C 831.5999999999999 567.5 830.6999999999999 566.7 829.5 566.1 C 828.3 565.6 826.8 565.3000000000001 825.2 565.3000000000001 L 817 565.3000000000001 L 817 584.1 L 821.3 584.1 L 821.3 578.9 L 825.0999999999999 578.9 C 825.1999999999999 578.9 825.1999999999999 578.9 825.3 578.9 L 828.9 584.1999999999999 L 833.6 584.1999999999999 L 829.5 578.1 C 829.5 578.1 829.5 578.1 829.5 578.1 z M 827.9 569.7 C 828.6 570.3000000000001 828.9 571.1 828.9 572.1 C 828.9 573.1 828.6 573.9 827.9 574.5 C 827.1999999999999 575.1 826.1999999999999 575.4 824.9 575.4 L 821.4 575.4 L 821.4 568.8 L 824.9 568.8 C 826.2 568.8 827.2 569.1 827.9 569.7 z" stroke-linecap="round" />
</g>
		<g transform="matrix(1 0 0 1 303.8 35)"  >
<polygon style="stroke: none; stroke-width: 1; stroke-dasharray: none; stroke-linecap: butt; stroke-dashoffset: 0; stroke-linejoin: miter; stroke-miterlimit: 4; fill: rgb(255,206,120); fill-rule: nonzero; opacity: 1;" vector-effect="non-scaling-stroke"  points="-3,1.6 5.8,1.6 5.8,-1.8 -3,-1.8 -3,-5.9 6.9,-5.9 6.9,-9.4 -7.3,-9.4 -7.3,9.4 7.3,9.4 7.3,5.9 -3,5.9 " />
</g>
</g>
</g>
</svg>