<?xml version="1.0" encoding="utf-8"?>
<!-- Generator: Adobe Illustrator 25.4.1, SVG Export Plug-In . SVG Version: 6.00 Build 0)  -->
<svg version="1.1" id="Layer_1" xmlns="http://www.w3.org/2000/svg" xmlns:xlink="http://www.w3.org/1999/xlink" x="0px" y="0px"
	 viewBox="0 0 1080 1080" style="enable-background:new 0 0 1080 1080;" xml:space="preserve">
<style type="text/css">
	.st0{fill:#FFCE78;}
</style>
<g>
	<path class="st0" d="M333.3,644l104.3-104.3L333.3,435.4L229.1,539.7L333.3,644z M287.3,487.5c0.1-0.2,0.3-0.4,0.5-0.5
		c0.2-0.3,0.4-0.5,0.7-0.8c0.2-0.3,0.5-0.5,0.7-0.8c0.1-0.1,0.2-0.3,0.4-0.4c0.1-0.1,0.2-0.2,0.3-0.3c0.3-0.4,0.7-0.7,1-1.1
		c0,0,0,0,0.1-0.1c0.2-0.3,0.5-0.5,0.7-0.8c0.2-0.2,0.4-0.4,0.6-0.5c0.3-0.3,0.7-0.7,1.1-1c2.5-2.3,5.1-4.4,7.9-6.2
		c8.3-5.6,17.7-9,27.8-9.8c0,0,2.9-0.3,4.4-0.3c1.4,0,4.2,0.3,4.2,0.3c10,0.8,19.5,4.2,27.7,9.8c4.2,2.8,8.1,6.1,11.6,9.9
		c2.8,3,5.4,6.4,7.7,9.9c2,3.1,3.8,6.5,5.4,9.9c1.4,3.2,2.7,6.5,3.8,9.9c0.5,1.5,0.9,3.1,1.3,4.7c0.7,2.7-1.4,5.3-4.2,5.3h-0.1
		c-2,0-3.7-1.4-4.2-3.3c-0.6-2.3-1.3-4.5-2-6.7c-1.2-3.5-2.7-6.8-4.5-9.9c-2-3.6-4.2-6.9-6.7-9.9c-3.1-3.8-6.6-7.1-10.5-9.9
		c-8.6-6.3-18.7-9.9-29.6-9.9c-10.9,0-21.1,3.7-29.6,9.9c-3.8,2.8-7.4,6.2-10.5,9.9c-2.5,3-4.8,6.4-6.7,9.9
		c-1.7,3.1-3.2,6.5-4.5,9.9c-1.1,3.2-2.1,6.5-2.8,9.9c-0.3,1.7-0.6,3.4-0.9,5.1c-0.3,2.6,1.7,4.8,4.3,4.8h0c2.1,0,4-1.6,4.2-3.7
		c0.3-2.1,0.7-4.2,1.2-6.3c0.8-3.5,2-6.8,3.4-9.9c1.6-3.6,3.5-6.9,5.6-9.9c2.7-3.8,5.8-7.1,9.2-9.9c7.7-6.3,17-9.9,27.1-9.9
		c10.1,0,19.4,3.7,27.1,9.9c3.5,2.8,6.6,6.2,9.2,9.9c2.2,3.1,4.1,6.4,5.6,9.9c0.6,1.4,1.2,2.8,1.7,4.2c1,2.8-1.1,5.7-4.1,5.7h-0.2
		c-1.8,0-3.4-1.1-4-2.8c-0.9-2.5-2-4.9-3.3-7.1c-2.2-3.8-4.8-7.1-7.8-9.9c-6.6-6.2-15-9.9-24.2-9.9c-9.2,0-17.6,3.7-24.2,9.9
		c-3,2.8-5.7,6.2-7.8,9.9c-1.8,3.1-3.2,6.4-4.3,9.9c-0.5,1.6-0.9,3.2-1.2,4.8c-0.5,2.7,1.5,5.1,4.2,5.1h0c2,0,3.8-1.4,4.2-3.4
		c0.5-2.3,1.2-4.5,2-6.5c1.5-3.7,3.6-7.1,6.1-9.9c5.4-6.2,12.8-9.9,21-9.9c8.2,0,15.6,3.8,21,9.9c0.9,1,1.7,2.1,2.5,3.3
		c1.9,2.8-0.1,6.7-3.6,6.7h-0.6c-1.4,0-2.6-0.7-3.4-1.7c-3.9-5-9.6-8.2-15.9-8.2c-7,0-13.2,3.9-17.1,9.9c-0.8,1.3-1.5,2.6-2.1,4
		c-1.2,2.8,0.9,5.9,4,5.9h75.4c2.4,0,4.3,1.9,4.3,4.3c0,0.2,0,0.5,0,0.7c0,1.7,0,3.3-0.1,5l0,0c-0.2,3.4-0.8,6.7-1.4,9.9
		c-0.6,3.4-1.4,6.7-2.4,9.9c-1,3.4-2.3,6.8-3.8,9.9c-1.6,3.5-3.4,6.8-5.4,9.9c-2.3,3.6-4.9,6.9-7.7,9.9c-3.5,3.8-7.4,7.1-11.6,9.9
		c-8.3,5.5-17.7,9-27.7,9.8c0,0-2.8,0.3-4.2,0.3c-1.5,0-4.4-0.3-4.4-0.3c-10.1-0.8-19.5-4.2-27.8-9.8c-0.2-0.1-0.3-0.2-0.5-0.3
		c-0.2-0.2-0.4-0.3-0.7-0.5c-0.2-0.2-0.4-0.3-0.7-0.5c-3.5-2.5-6.8-5.5-9.8-8.7c-2.8-3-5.4-6.4-7.7-9.9c-2-3.1-3.8-6.5-5.4-9.9
		c-1.4-3.2-2.7-6.5-3.8-9.9c-0.5-1.5-0.9-3.1-1.3-4.7c-0.7-2.7,1.4-5.3,4.2-5.3h0.1c2,0,3.7,1.4,4.2,3.3c0.6,2.3,1.3,4.5,2,6.7
		c1.2,3.5,2.8,6.8,4.5,9.9c2,3.6,4.2,6.9,6.7,9.9c3.1,3.8,6.6,7.1,10.5,9.9c8.3,6.1,18.2,9.7,28.7,9.9h1.8
		c10.6-0.2,20.4-3.8,28.7-9.9c3.8-2.8,7.4-6.2,10.5-9.9c2.5-3,4.8-6.4,6.7-9.9c1.7-3.1,3.2-6.5,4.5-9.9c1.1-3.2,2.1-6.5,2.8-9.9
		c0.3-1.7,0.6-3.4,0.9-5.1c0.3-2.6-1.7-4.8-4.3-4.8l0,0c-2.1,0-4,1.6-4.2,3.7c-0.3,2.1-0.7,4.2-1.2,6.3c-0.8,3.5-2,6.8-3.4,9.9
		c-1.6,3.6-3.5,6.9-5.6,9.9c-2.7,3.8-5.8,7.1-9.2,9.9c-7.7,6.3-17,9.9-27.1,9.9c-10.1,0-19.4-3.7-27.1-9.9c-3.4-2.8-6.6-6.2-9.2-9.9
		c-2.2-3.1-4.1-6.4-5.6-9.9c-0.6-1.4-1.2-2.8-1.7-4.2c-1-2.8,1.1-5.7,4-5.7h0.2c1.8,0,3.4,1.1,4,2.9c0.9,2.5,2,4.9,3.3,7.1
		c2.2,3.8,4.8,7.1,7.8,9.9c6.6,6.2,15,9.9,24.2,9.9c9.2,0,17.6-3.7,24.2-9.9c3-2.8,5.7-6.2,7.8-9.9c1.8-3.1,3.2-6.4,4.3-9.9
		c0.5-1.6,0.9-3.2,1.2-4.8c0.5-2.7-1.5-5.1-4.2-5.1h0c-2,0-3.8,1.4-4.2,3.4c-0.5,2.3-1.2,4.5-2,6.5c-1.5,3.7-3.6,7.1-6.1,9.9
		c-5.4,6.2-12.8,9.9-21,9.9c-8.2,0-15.6-3.8-21-9.9c-0.9-1-1.7-2.1-2.5-3.3c-1.9-2.8,0.1-6.7,3.6-6.7h0.6c1.4,0,2.6,0.7,3.4,1.7
		c3.9,5,9.6,8.2,15.9,8.2c7,0,13.2-3.9,17.1-9.9c0.8-1.3,1.5-2.6,2.1-4c1.2-2.8-0.9-5.9-4-5.9h-75.1c-2.4,0-4.3-1.9-4.3-4.3
		c0-0.2,0-0.5,0-0.7c0-19.3,6.3-37,16.7-50.2C286.3,488.8,286.8,488.2,287.3,487.5z"/>
	<g>
		<g>
			<path class="st0" d="M501.6,521.4c-1.7-1.1-3.6-1.9-5.7-2.6c-2.1-0.6-4.2-1.2-6.2-1.7c-2.1-0.5-4-1-5.7-1.5
				c-1.7-0.5-3.1-1.1-4.2-2c-1.1-0.8-1.6-1.9-1.6-3.2c0-1.1,0.3-2.1,0.9-3c0.6-0.9,1.7-1.6,3.1-2.1c1.4-0.5,3.3-0.8,5.5-0.8
				c2.3,0,4.5,0.3,6.9,1c2.3,0.7,4.7,1.7,7,3.1l3.6-9.1c-2.3-1.5-5.1-2.7-8.1-3.4c-3.1-0.8-6.2-1.1-9.3-1.1c-4.7,0-8.7,0.7-11.8,2.2
				c-3.1,1.4-5.5,3.4-7,5.8c-1.6,2.4-2.3,5.1-2.3,8.1c0,2.8,0.5,5,1.6,6.8c1.1,1.8,2.5,3.2,4.2,4.3c1.7,1.1,3.6,2,5.7,2.7
				c2.1,0.7,4.2,1.3,6.2,1.7c2.1,0.5,4,1,5.7,1.5c1.7,0.5,3.1,1.2,4.2,2c1.1,0.8,1.6,1.9,1.6,3.3c0,1.1-0.3,2-1,2.9
				c-0.7,0.8-1.7,1.5-3.1,2c-1.4,0.5-3.3,0.7-5.6,0.7c-3,0-6-0.5-8.9-1.5c-2.9-1-5.5-2.3-7.6-3.9l-4,9c2.3,1.8,5.2,3.2,8.9,4.3
				c3.7,1.1,7.5,1.7,11.6,1.7c4.8,0,8.8-0.7,11.9-2.2c3.1-1.5,5.5-3.4,7.1-5.8c1.6-2.4,2.4-5.1,2.4-8c0-2.7-0.5-4.9-1.6-6.7
				C504.7,523.9,503.3,522.5,501.6,521.4z"/>
			<path class="st0" d="M531.2,495.9l-22.4,51.6h11.9l4.5-11h23.3l4.5,11h12.2l-22.5-51.6H531.2z M528.9,527.3l8-19.7l8,19.7H528.9z
				"/>
			<polygon class="st0" points="617.4,495.9 598.9,527.9 580,495.9 570.4,495.9 570.4,547.4 581.3,547.4 581.3,517.2 596.1,542 
				601.3,542 616.1,516.5 616.2,547.4 627.1,547.4 626.9,495.9 			"/>
			<path class="st0" d="M672.1,536.4l4.5,11h12.2l-22.5-51.6h-11.5l-22.4,51.6h11.9l4.5-11H672.1z M660.5,507.6l8,19.7h-16
				L660.5,507.6z"/>
			<path class="st0" d="M697.9,540.8c2.5,2.4,5.4,4.3,8.7,5.6c3.3,1.3,7,2,11,2c3.6,0,7.2-0.6,10.8-1.7c3.6-1.1,6.8-2.7,9.5-4.9
				v-20.9h-10.6V536c-0.8,0.4-1.5,0.8-2.3,1c-2.2,0.8-4.4,1.1-6.7,1.1c-2.4,0-4.6-0.4-6.6-1.2c-2-0.8-3.7-1.9-5.2-3.4
				c-1.5-1.5-2.6-3.3-3.4-5.3c-0.8-2-1.2-4.2-1.2-6.6c0-2.5,0.4-4.7,1.2-6.7c0.8-2,1.9-3.8,3.4-5.2c1.5-1.5,3.2-2.6,5.2-3.4
				c2-0.8,4.2-1.2,6.7-1.2c2.5,0,4.9,0.5,7,1.4c2.2,1,4.1,2.4,6,4.4l7.5-7.1c-2.4-2.9-5.4-5.1-9-6.6c-3.6-1.5-7.6-2.3-12-2.3
				c-4,0-7.7,0.7-11.1,2c-3.4,1.3-6.3,3.2-8.8,5.6c-2.5,2.4-4.4,5.2-5.8,8.5c-1.4,3.2-2,6.8-2,10.7c0,3.9,0.7,7.4,2,10.7
				C693.6,535.6,695.5,538.4,697.9,540.8z"/>
			<path class="st0" d="M760.3,533.1h10.1c0.2,0,0.4,0,0.5,0l9.7,14.4h12.6L782,530.9c0,0,0.1,0,0.1,0c3.3-1.5,5.8-3.6,7.5-6.4
				c1.8-2.8,2.7-6.1,2.7-9.9c0-3.9-0.9-7.2-2.7-10c-1.8-2.8-4.3-4.9-7.5-6.4c-3.3-1.5-7.1-2.2-11.6-2.2h-21.8v51.6h11.6V533.1z
				 M777.9,508c1.8,1.6,2.7,3.8,2.7,6.6c0,2.8-0.9,5-2.7,6.6c-1.8,1.6-4.5,2.4-8,2.4h-9.5v-18h9.5
				C773.4,505.6,776.1,506.4,777.9,508z"/>
			<path class="st0" d="M811.3,536.4h23.3l4.5,11h12.2l-22.5-51.6h-11.5l-22.4,51.6h11.9L811.3,536.4z M823,507.6l8,19.7h-16
				L823,507.6z"/>
		</g>
		<g>
			<path class="st0" d="M670.4,574.6c-0.6-0.4-1.4-0.7-2.1-0.9c-0.8-0.2-1.6-0.4-2.3-0.6c-0.8-0.2-1.5-0.4-2.1-0.5
				c-0.6-0.2-1.2-0.4-1.6-0.7c-0.4-0.3-0.6-0.7-0.6-1.2c0-0.4,0.1-0.8,0.3-1.1c0.2-0.3,0.6-0.6,1.2-0.8c0.5-0.2,1.2-0.3,2.1-0.3
				c0.8,0,1.7,0.1,2.6,0.4c0.9,0.2,1.8,0.6,2.6,1.1l1.3-3.3c-0.9-0.6-1.9-1-3-1.3c-1.1-0.3-2.3-0.4-3.5-0.4c-1.8,0-3.2,0.3-4.4,0.8
				c-1.2,0.5-2,1.2-2.6,2.1c-0.6,0.9-0.9,1.9-0.9,2.9c0,1,0.2,1.8,0.6,2.5c0.4,0.6,0.9,1.2,1.6,1.6c0.6,0.4,1.4,0.7,2.1,1
				c0.8,0.3,1.6,0.5,2.3,0.6c0.8,0.2,1.5,0.3,2.1,0.5c0.6,0.2,1.2,0.4,1.6,0.7c0.4,0.3,0.6,0.7,0.6,1.2c0,0.4-0.1,0.7-0.4,1
				c-0.3,0.3-0.6,0.5-1.2,0.7c-0.5,0.2-1.2,0.3-2.1,0.3c-1.1,0-2.2-0.2-3.3-0.6c-1.1-0.4-2.1-0.8-2.9-1.4l-1.5,3.3
				c0.8,0.6,1.9,1.2,3.3,1.6c1.4,0.4,2.8,0.6,4.3,0.6c1.8,0,3.3-0.3,4.4-0.8c1.2-0.5,2.1-1.2,2.6-2.1c0.6-0.9,0.9-1.8,0.9-2.9
				c0-1-0.2-1.8-0.6-2.4C671.5,575.5,671,575,670.4,574.6z"/>
			<path class="st0" d="M688,575.7c0,1.8-0.4,3.1-1.1,3.9s-1.8,1.2-3.1,1.2c-1.3,0-2.4-0.4-3.1-1.2c-0.7-0.8-1.1-2.1-1.1-3.9v-10.4
				h-4.3v10.5c0,2.8,0.8,4.9,2.3,6.4c1.5,1.5,3.6,2.2,6.2,2.2s4.7-0.7,6.2-2.2c1.5-1.5,2.3-3.6,2.3-6.4v-10.5H688V575.7z"/>
			<path class="st0" d="M709.1,566.1c-1.2-0.5-2.7-0.8-4.3-0.8h-8.1v18.8h4.3v-5.2h3.8c1.7,0,3.1-0.3,4.3-0.8
				c1.2-0.5,2.2-1.3,2.8-2.4c0.7-1,1-2.2,1-3.6c0-1.4-0.3-2.6-1-3.7C711.2,567.4,710.3,566.7,709.1,566.1z M707.5,574.5
				c-0.7,0.6-1.7,0.9-3,0.9H701v-6.5h3.5c1.3,0,2.3,0.3,3,0.9c0.7,0.6,1,1.4,1,2.4C708.5,573.2,708.2,574,707.5,574.5z"/>
			<polygon class="st0" points="720.3,576.3 729,576.3 729,572.9 720.3,572.9 720.3,568.8 730.2,568.8 730.2,565.3 716,565.3 
				716,584.1 730.5,584.1 730.5,580.6 720.3,580.6 			"/>
			<path class="st0" d="M746.4,578.1c1.2-0.5,2.2-1.3,2.8-2.3c0.7-1,1-2.2,1-3.6c0-1.4-0.3-2.6-1-3.7c-0.7-1-1.6-1.8-2.8-2.4
				c-1.2-0.5-2.7-0.8-4.3-0.8H734v18.8h4.3v-5.2h3.8c0.1,0,0.1,0,0.2,0l3.6,5.3h4.7L746.4,578.1
				C746.4,578.1,746.4,578.1,746.4,578.1z M744.9,569.7c0.7,0.6,1,1.4,1,2.4c0,1-0.3,1.8-1,2.4c-0.7,0.6-1.7,0.9-3,0.9h-3.5v-6.6
				h3.5C743.2,568.8,744.2,569.1,744.9,569.7z"/>
			<path class="st0" d="M773.2,574.6c-0.6-0.4-1.4-0.7-2.1-0.9c-0.8-0.2-1.6-0.4-2.3-0.6c-0.8-0.2-1.5-0.4-2.1-0.5
				c-0.6-0.2-1.2-0.4-1.6-0.7c-0.4-0.3-0.6-0.7-0.6-1.2c0-0.4,0.1-0.8,0.3-1.1c0.2-0.3,0.6-0.6,1.2-0.8c0.5-0.2,1.2-0.3,2.1-0.3
				c0.8,0,1.7,0.1,2.6,0.4c0.9,0.2,1.8,0.6,2.6,1.1l1.3-3.3c-0.9-0.6-1.9-1-3-1.3c-1.1-0.3-2.3-0.4-3.5-0.4c-1.8,0-3.2,0.3-4.4,0.8
				c-1.2,0.5-2,1.2-2.6,2.1c-0.6,0.9-0.9,1.9-0.9,2.9c0,1,0.2,1.8,0.6,2.5c0.4,0.6,0.9,1.2,1.6,1.6c0.6,0.4,1.4,0.7,2.1,1
				c0.8,0.3,1.6,0.5,2.3,0.6c0.8,0.2,1.5,0.3,2.1,0.5c0.6,0.2,1.2,0.4,1.6,0.7c0.4,0.3,0.6,0.7,0.6,1.2c0,0.4-0.1,0.7-0.4,1
				c-0.3,0.3-0.6,0.5-1.2,0.7c-0.5,0.2-1.2,0.3-2.1,0.3c-1.1,0-2.2-0.2-3.3-0.6c-1.1-0.4-2.1-0.8-2.9-1.4l-1.5,3.3
				c0.8,0.6,1.9,1.2,3.3,1.6c1.4,0.4,2.8,0.6,4.3,0.6c1.8,0,3.3-0.3,4.4-0.8c1.2-0.5,2.1-1.2,2.6-2.1c0.6-0.9,0.9-1.8,0.9-2.9
				c0-1-0.2-1.8-0.6-2.4C774.4,575.5,773.9,575,773.2,574.6z"/>
			<polygon class="st0" points="776,568.8 782,568.8 782,584.1 786.3,584.1 786.3,568.8 792.3,568.8 792.3,565.3 776,565.3 			"/>
			<path class="st0" d="M810.8,567.7c-0.9-0.9-2-1.6-3.2-2c-1.2-0.5-2.6-0.7-4.1-0.7c-1.5,0-2.8,0.2-4.1,0.7c-1.3,0.5-2.3,1.2-3.3,2
				c-0.9,0.9-1.6,1.9-2.2,3.1c-0.5,1.2-0.8,2.5-0.8,3.9c0,1.4,0.3,2.7,0.8,3.9c0.5,1.2,1.2,2.2,2.1,3.1c0.9,0.9,2,1.6,3.3,2
				s2.6,0.7,4.1,0.7c1.5,0,2.8-0.2,4.1-0.7c1.2-0.5,2.3-1.2,3.2-2c0.9-0.9,1.6-1.9,2.2-3.1c0.5-1.2,0.8-2.5,0.8-3.9
				c0-1.4-0.3-2.7-0.8-3.9C812.5,569.6,811.7,568.6,810.8,567.7z M808.9,577.2c-0.3,0.7-0.7,1.4-1.2,1.9c-0.5,0.5-1.2,1-1.9,1.2
				c-0.7,0.3-1.5,0.4-2.3,0.4c-0.8,0-1.6-0.1-2.3-0.4c-0.7-0.3-1.3-0.7-1.9-1.2c-0.5-0.5-0.9-1.2-1.2-1.9c-0.3-0.7-0.4-1.6-0.4-2.4
				c0-0.9,0.1-1.7,0.4-2.4c0.3-0.7,0.7-1.4,1.2-1.9c0.5-0.5,1.2-1,1.9-1.2c0.7-0.3,1.5-0.4,2.3-0.4c0.8,0,1.6,0.1,2.3,0.4
				c0.7,0.3,1.3,0.7,1.9,1.2c0.5,0.5,0.9,1.2,1.2,1.9c0.3,0.7,0.4,1.6,0.4,2.4S809.2,576.4,808.9,577.2z"/>
			<path class="st0" d="M829.5,578.1c1.2-0.5,2.2-1.3,2.8-2.3c0.7-1,1-2.2,1-3.6c0-1.4-0.3-2.6-1-3.7c-0.7-1-1.6-1.8-2.8-2.4
				c-1.2-0.5-2.7-0.8-4.3-0.8H817v18.8h4.3v-5.2h3.8c0.1,0,0.1,0,0.2,0l3.6,5.3h4.7L829.5,578.1
				C829.5,578.1,829.5,578.1,829.5,578.1z M827.9,569.7c0.7,0.6,1,1.4,1,2.4c0,1-0.3,1.8-1,2.4c-0.7,0.6-1.7,0.9-3,0.9h-3.5v-6.6
				h3.5C826.2,568.8,827.2,569.1,827.9,569.7z"/>
			<polygon class="st0" points="841,576.3 849.8,576.3 849.8,572.9 841,572.9 841,568.8 850.9,568.8 850.9,565.3 836.7,565.3 
				836.7,584.1 851.3,584.1 851.3,580.6 841,580.6 			"/>
		</g>
	</g>
</g>
</svg>
